# xmcd
#
# Track frame offsets: 
#        150
#        12255
#        28628
#        47625
#        64100
#        82975
#        94426
#        111061
#        124811
#        138750
#        158952
#
# Disc length: 2272 seconds
#
# Revision: 0
# Processed by: cddbd v1.5.2PL0 Copyright (c) Steve Scherf et al.
# Submitted via: ExactAudioCopyFreeDBPlugin 1.0
#
DISCID=8908de0b
DTITLE=區瑞強 - 一首靚歌 兩個故事 (A)
DYEAR=2013
DGENRE=Country
TTITLE0=仍然是你
TTITLE1=漁火閃閃
TTITLE2=客從何處來
TTITLE3=讓快樂延續愛
TTITLE4=相對無言
TTITLE5=是誰沉醉
TTITLE6=螢火
TTITLE7=願一切留住
TTITLE8=傷心的小鸚鵡
TTITLE9=忘不了的你
TTITLE10=不要離去
EXTD=
EXTT0=
EXTT1=
EXTT2=
EXTT3=
EXTT4=
EXTT5=
EXTT6=
EXTT7=
EXTT8=
EXTT9=
EXTT10=
PLAYORDER=
